<svg width="1280" height="720" xmlns="http://www.w3.org/2000/svg" xmlns:xlink="http://www.w3.org/1999/xlink" overflow="hidden"><defs><clipPath id="clip0"><rect x="0" y="0" width="1280" height="720"/></clipPath></defs><g clip-path="url(#clip0)"><rect x="0" y="0" width="1280" height="720" fill="#FFFFFF"/><path d="M476.5 235.701C476.5 233.381 478.381 231.5 480.701 231.5L614.299 231.5C616.619 231.5 618.5 233.381 618.5 235.701L618.5 270.299C618.5 272.619 616.619 274.5 614.299 274.5L480.701 274.5C478.381 274.5 476.5 272.619 476.5 270.299Z" stroke="#000000" stroke-width="1.33333" stroke-miterlimit="8" fill="none" fill-rule="evenodd"/><text font-family="Calibri,Calibri_MSFontService,sans-serif" font-weight="400" font-size="16" transform="translate(499.564 258)">ControlService</text><path d="M1219.5 386.875C1219.5 389.844 1200.92 392.25 1178 392.25 1155.08 392.25 1136.5 389.844 1136.5 386.875 1136.5 383.907 1155.08 381.5 1178 381.5 1200.92 381.5 1219.5 383.907 1219.5 386.875L1219.5 419.125C1219.5 422.094 1200.92 424.5 1178 424.5 1155.08 424.5 1136.5 422.094 1136.5 419.125L1136.5 386.875" stroke="#000000" stroke-width="1.33333" stroke-miterlimit="8" fill="none" fill-rule="evenodd"/><text font-family="Calibri,Calibri_MSFontService,sans-serif" font-weight="400" font-size="16" transform="translate(1153.19 410)">Storage</text><path d="M443.5 42.5001 443.5 639.732" stroke="#000000" stroke-width="1.33333" stroke-miterlimit="8" stroke-dasharray="10.6667 4 1.33333 4" fill="none" fill-rule="evenodd"/><text font-family="Calibri,Calibri_MSFontService,sans-serif" font-weight="400" font-size="24" transform="translate(76.8242 69)">“Frontend” (</text><text font-family="Calibri,Calibri_MSFontService,sans-serif" font-weight="400" font-size="24" transform="translate(198.791 69)">Application, GUI)</text><text font-family="Calibri,Calibri_MSFontService,sans-serif" font-weight="400" font-size="24" transform="translate(528.642 69)">“Middle</text><text font-family="Calibri,Calibri_MSFontService,sans-serif" font-weight="400" font-size="24" transform="translate(607.475 69)">-</text><text font-family="Calibri,Calibri_MSFontService,sans-serif" font-weight="400" font-size="24" transform="translate(614.808 69)">layer” (Services)</text><path d="M867.5 42.5001 867.5 639.732" stroke="#000000" stroke-width="1.33333" stroke-miterlimit="8" stroke-dasharray="10.6667 4 1.33333 4" fill="none" fill-rule="evenodd"/><text font-family="Calibri,Calibri_MSFontService,sans-serif" font-weight="400" font-size="24" transform="translate(1018.99 69)">“Backend”</text><path d="M663.5 296.701C663.5 294.381 665.381 292.5 667.701 292.5L801.299 292.5C803.619 292.5 805.5 294.381 805.5 296.701L805.5 331.299C805.5 333.619 803.619 335.5 801.299 335.5L667.701 335.5C665.381 335.5 663.5 333.619 663.5 331.299Z" stroke="#000000" stroke-width="1.33333" stroke-miterlimit="8" fill="none" fill-rule="evenodd"/><text font-family="Calibri,Calibri_MSFontService,sans-serif" font-weight="400" font-size="16" transform="translate(695.441 319)">DataService</text><path d="M663.5 385.701C663.5 383.381 665.381 381.5 667.701 381.5L801.299 381.5C803.619 381.5 805.5 383.381 805.5 385.701L805.5 420.299C805.5 422.619 803.619 424.5 801.299 424.5L667.701 424.5C665.381 424.5 663.5 422.619 663.5 420.299Z" stroke="#000000" stroke-width="1.33333" stroke-miterlimit="8" fill="none" fill-rule="evenodd"/><text font-family="Calibri,Calibri_MSFontService,sans-serif" font-weight="400" font-size="16" transform="translate(685.911 408)">StorageService</text><path d="M663.5 162.701C663.5 160.381 665.381 158.5 667.701 158.5L801.299 158.5C803.619 158.5 805.5 160.381 805.5 162.701L805.5 197.299C805.5 199.619 803.619 201.5 801.299 201.5L667.701 201.5C665.381 201.5 663.5 199.619 663.5 197.299Z" stroke="#000000" stroke-width="1.33333" stroke-miterlimit="8" fill="none" fill-rule="evenodd"/><text font-family="Calibri,Calibri_MSFontService,sans-serif" font-weight="400" font-size="16" transform="translate(682.138 185)">LoxBerryService</text><path d="M928.5 162.701C928.5 160.381 930.381 158.5 932.701 158.5L1066.3 158.5C1068.62 158.5 1070.5 160.381 1070.5 162.701L1070.5 197.299C1070.5 199.619 1068.62 201.5 1066.3 201.5L932.701 201.5C930.381 201.5 928.5 199.619 928.5 197.299Z" stroke="#000000" stroke-width="1.33333" stroke-miterlimit="8" fill="none" fill-rule="evenodd"/><text font-family="Calibri,Calibri_MSFontService,sans-serif" font-weight="400" font-size="16" transform="translate(959.804 185)">MqttService</text><path d="M928.5 385.701C928.5 383.381 930.381 381.5 932.701 381.5L1066.3 381.5C1068.62 381.5 1070.5 383.381 1070.5 385.701L1070.5 420.299C1070.5 422.619 1068.62 424.5 1066.3 424.5L932.701 424.5C930.381 424.5 928.5 422.619 928.5 420.299Z" stroke="#000000" stroke-width="1.33333" stroke-miterlimit="8" fill="none" fill-rule="evenodd"/><text font-family="Calibri,Calibri_MSFontService,sans-serif" font-weight="400" font-size="16" transform="translate(950.067 408)">EncryptStorage</text><path d="M928.5 296.701C928.5 294.381 930.381 292.5 932.701 292.5L1066.3 292.5C1068.62 292.5 1070.5 294.381 1070.5 296.701L1070.5 331.299C1070.5 333.619 1068.62 335.5 1066.3 335.5L932.701 335.5C930.381 335.5 928.5 333.619 928.5 331.299Z" stroke="#000000" stroke-width="1.33333" stroke-miterlimit="8" fill="none" fill-rule="evenodd"/><text font-family="Calibri,Calibri_MSFontService,sans-serif" font-weight="400" font-size="16" transform="translate(982.197 319)">Store</text><path d="M805.5 166.833 922.151 166.833 922.151 168.167 805.5 168.167ZM920.817 163.5 928.817 167.5 920.817 171.5Z"/><path d="M805.5 302.833 922.151 302.833 922.151 304.167 805.5 304.167ZM920.817 299.5 928.817 303.5 920.817 307.5Z"/><path d="M805.5 401.833 922.151 401.833 922.151 403.167 805.5 403.167ZM920.817 398.5 928.817 402.5 920.817 406.5Z"/><path d="M1219.5 297.875C1219.5 300.844 1200.92 303.25 1178 303.25 1155.08 303.25 1136.5 300.844 1136.5 297.875 1136.5 294.907 1155.08 292.5 1178 292.5 1200.92 292.5 1219.5 294.907 1219.5 297.875L1219.5 330.125C1219.5 333.094 1200.92 335.5 1178 335.5 1155.08 335.5 1136.5 333.094 1136.5 330.125L1136.5 297.875" stroke="#000000" stroke-width="1.33333" stroke-miterlimit="8" fill="none" fill-rule="evenodd"/><text font-family="Calibri,Calibri_MSFontService,sans-serif" font-weight="400" font-size="16" transform="translate(1148.23 322)">AppState</text><path d="M1070.5 314.5 1136.28 314.5" stroke="#000000" stroke-width="1.33333" stroke-miterlimit="8" fill="none" fill-rule="evenodd"/><path d="M1070.5 402.5 1136.28 402.5" stroke="#000000" stroke-width="1.33333" stroke-miterlimit="8" fill="none" fill-rule="evenodd"/><path d="M1134.07 166.779C1132.84 157.582 1139.19 149.112 1148.25 147.861 1151.93 147.354 1155.66 148.112 1158.86 150.013 1162.25 143.531 1170.18 141.068 1176.56 144.511 1177.68 145.113 1178.7 145.876 1179.6 146.776 1182.24 141.403 1188.67 139.221 1193.97 141.901 1195.43 142.643 1196.71 143.715 1197.7 145.037 1201.96 139.956 1209.48 139.328 1214.5 143.635 1216.61 145.445 1218.03 147.942 1218.52 150.697 1225.49 152.627 1229.61 159.937 1227.71 167.024 1227.55 167.62 1227.35 168.204 1227.11 168.771 1232.7 176.156 1231.33 186.741 1224.05 192.413 1221.79 194.179 1219.11 195.322 1216.28 195.732 1216.22 203.678 1209.81 210.067 1201.97 210.003 1199.35 209.982 1196.79 209.226 1194.57 207.821 1191.92 216.728 1182.67 221.763 1173.91 219.066 1170.24 217.935 1167.07 215.545 1164.94 212.303 1155.97 217.788 1144.33 214.838 1138.94 205.711 1138.88 205.596 1138.81 205.481 1138.74 205.364 1132.88 206.061 1127.56 201.813 1126.87 195.877 1126.5 192.713 1127.53 189.546 1129.69 187.22 1124.61 184.186 1122.9 177.526 1125.87 172.345 1127.59 169.356 1130.6 167.38 1133.98 167.025Z" stroke="#000000" stroke-width="1.33333" stroke-miterlimit="8" fill="#FFFFFF" fill-rule="evenodd"/><path d="M1136.02 188.37C1133.85 188.542 1131.68 188.034 1129.8 186.913M1141.5 204.32C1140.63 204.672 1139.71 204.907 1138.78 205.018M1164.93 211.984C1164.28 210.986 1163.73 209.919 1163.29 208.802M1195.23 204.049C1195.14 205.233 1194.92 206.404 1194.58 207.541M1208.24 182.476C1213.16 184.904 1216.26 189.981 1216.22 195.525M1227.06 168.578C1226.26 170.466 1225.05 172.141 1223.51 173.471M1218.54 150.423C1218.67 151.185 1218.73 151.959 1218.72 152.733M1195.85 147.727C1196.31 146.661 1196.92 145.668 1197.67 144.78M1178.83 149.132C1179.02 148.251 1179.31 147.397 1179.71 146.59M1158.85 149.995C1160.01 150.683 1161.08 151.511 1162.04 152.46M1134.63 169.373C1134.37 168.525 1134.19 167.657 1134.07 166.779" stroke="#000000" stroke-width="1.33333" stroke-miterlimit="8" fill="none" fill-rule="evenodd"/><text font-family="Calibri,Calibri_MSFontService,sans-serif" font-weight="400" font-size="16" transform="translate(1153.34 183)">MQTT</text><path d="M1070.5 179.5 1124.58 179.5" stroke="#000000" stroke-width="1.33333" stroke-miterlimit="8" fill="none" fill-rule="evenodd"/><path d="M546.833 231.674 546.833 178.833 656.735 178.833 656.735 180.167 547.5 180.167 548.167 179.5 548.167 231.674ZM655.401 175.5 663.401 179.5 655.401 183.5Z"/><path d="M213.5 136.138C213.5 134.681 214.681 133.5 216.138 133.5L360.862 133.5C362.319 133.5 363.5 134.681 363.5 136.138L363.5 157.862C363.5 159.319 362.319 160.5 360.862 160.5L216.138 160.5C214.681 160.5 213.5 159.319 213.5 157.862Z" stroke="#000000" stroke-width="1.33333" stroke-miterlimit="8" fill="none" fill-rule="evenodd"/><text font-family="Calibri,Calibri_MSFontService,sans-serif" font-weight="400" font-size="16" transform="translate(238.208 152)">CategoriesPage</text><path d="M213.5 167.236C213.5 165.725 214.725 164.5 216.236 164.5L360.764 164.5C362.275 164.5 363.5 165.725 363.5 167.236L363.5 189.764C363.5 191.275 362.275 192.5 360.764 192.5L216.236 192.5C214.725 192.5 213.5 191.275 213.5 189.764Z" stroke="#000000" stroke-width="1.33333" stroke-miterlimit="8" fill="none" fill-rule="evenodd"/><text font-family="Calibri,Calibri_MSFontService,sans-serif" font-weight="400" font-size="16" transform="translate(245.364 183)">ControlsPage</text><path d="M213.5 199.138C213.5 197.681 214.681 196.5 216.138 196.5L360.862 196.5C362.319 196.5 363.5 197.681 363.5 199.138L363.5 220.862C363.5 222.319 362.319 223.5 360.862 223.5L216.138 223.5C214.681 223.5 213.5 222.319 213.5 220.862Z" stroke="#000000" stroke-width="1.33333" stroke-miterlimit="8" fill="none" fill-rule="evenodd"/><text font-family="Calibri,Calibri_MSFontService,sans-serif" font-weight="400" font-size="16" transform="translate(221.421 215)">DetailedControlPage</text><path d="M213.5 231.138C213.5 229.681 214.681 228.5 216.138 228.5L360.862 228.5C362.319 228.5 363.5 229.681 363.5 231.138L363.5 252.862C363.5 254.319 362.319 255.5 360.862 255.5L216.138 255.5C214.681 255.5 213.5 254.319 213.5 252.862Z" stroke="#000000" stroke-width="1.33333" stroke-miterlimit="8" fill="none" fill-rule="evenodd"/><text font-family="Calibri,Calibri_MSFontService,sans-serif" font-weight="400" font-size="16" transform="translate(250.241 247)">RoomsPage</text><path d="M213.5 263.138C213.5 261.681 214.681 260.5 216.138 260.5L360.862 260.5C362.319 260.5 363.5 261.681 363.5 263.138L363.5 284.862C363.5 286.319 362.319 287.5 360.862 287.5L216.138 287.5C214.681 287.5 213.5 286.319 213.5 284.862Z" stroke="#000000" stroke-width="1.33333" stroke-miterlimit="8" fill="none" fill-rule="evenodd"/><text font-family="Calibri,Calibri_MSFontService,sans-serif" font-weight="400" font-size="16" transform="translate(252.828 279)">HomePage</text><path d="M213.5 391.138C213.5 389.681 214.681 388.5 216.138 388.5L360.862 388.5C362.319 388.5 363.5 389.681 363.5 391.138L363.5 412.862C363.5 414.319 362.319 415.5 360.862 415.5L216.138 415.5C214.681 415.5 213.5 414.319 213.5 412.862Z" stroke="#000000" stroke-width="1.33333" stroke-miterlimit="8" fill="none" fill-rule="evenodd"/><text font-family="Calibri,Calibri_MSFontService,sans-serif" font-weight="400" font-size="16" transform="translate(246.734 407)">SettingsPage</text><path d="M213.5 294.138C213.5 292.681 214.681 291.5 216.138 291.5L360.862 291.5C362.319 291.5 363.5 292.681 363.5 294.138L363.5 315.862C363.5 317.319 362.319 318.5 360.862 318.5L216.138 318.5C214.681 318.5 213.5 317.319 213.5 315.862Z" stroke="#000000" stroke-width="1.33333" stroke-miterlimit="8" fill="none" fill-rule="evenodd"/><text font-family="Calibri,Calibri_MSFontService,sans-serif" font-weight="400" font-size="16" transform="translate(258.078 309)">TabsPage</text><path d="M213.5 326.138C213.5 324.681 214.681 323.5 216.138 323.5L360.862 323.5C362.319 323.5 363.5 324.681 363.5 326.138L363.5 347.862C363.5 349.319 362.319 350.5 360.862 350.5L216.138 350.5C214.681 350.5 213.5 349.319 213.5 347.862Z" stroke="#000000" stroke-width="1.33333" stroke-miterlimit="8" fill="none" fill-rule="evenodd"/><text font-family="Calibri,Calibri_MSFontService,sans-serif" font-weight="400" font-size="16" transform="translate(252.578 342)">AboutPage</text><path d="M363.5 146.5 399.659 146.5 399.659 273.954 364.833 273.954" stroke="#000000" stroke-width="1.33333" stroke-miterlimit="8" fill="none" fill-rule="evenodd"/><path d="M400.5 253.5 476.257 253.5" stroke="#000000" stroke-width="1.33333" stroke-miterlimit="8" fill="none" fill-rule="evenodd"/><path d="M363.5 178.5 399.75 178.5 399.75 242.356 364.833 242.356" stroke="#000000" stroke-width="1.33333" stroke-miterlimit="8" fill="none" fill-rule="evenodd"/><path d="M735.167 201.5 735.167 286.32 733.833 286.32 733.833 201.5ZM738.5 284.986 734.5 292.986 730.5 284.986Z"/><text font-family="Calibri,Calibri_MSFontService,sans-serif" font-style="italic" font-weight="400" font-size="13" transform="translate(556.45 170)">updateControl</text><path d="M656.735 314.479 651.401 314.479 651.401 313.146 656.735 313.146ZM647.401 314.479 642.068 314.479 642.068 313.146 647.401 313.146ZM638.068 314.479 632.735 314.479 632.735 313.146 638.068 313.146ZM628.735 314.479 623.401 314.479 623.401 313.146 628.735 313.146ZM619.401 314.479 614.068 314.479 614.068 313.146 619.401 313.146ZM610.068 314.479 604.735 314.479 604.735 313.146 610.068 313.146ZM600.735 314.479 595.401 314.479 595.401 313.146 600.735 313.146ZM591.401 314.479 586.068 314.479 586.068 313.146 591.401 313.146ZM582.068 314.479 576.735 314.479 576.735 313.146 582.068 313.146ZM572.735 314.479 567.401 314.479 567.401 313.146 572.735 313.146ZM563.401 314.479 558.068 314.479 558.068 313.146 563.401 313.146ZM554.068 314.479 548.735 314.479 548.735 313.146 554.068 313.146ZM546.833 311.047 546.833 305.714 548.167 305.714 548.167 311.047ZM546.833 301.714 546.833 296.38 548.167 296.38 548.167 301.714ZM546.833 292.38 546.833 287.047 548.167 287.047 548.167 292.38ZM546.833 283.047 546.833 277.714 548.167 277.714 548.167 283.047ZM655.401 309.812 663.401 313.812 655.401 317.812Z"/><path d="M458.5 684.833 463.833 684.833 463.833 686.167 458.5 686.167ZM467.833 684.833 473.167 684.833 473.167 686.167 467.833 686.167ZM477.167 684.833 482.5 684.833 482.5 686.167 477.167 686.167ZM486.5 684.833 491.833 684.833 491.833 686.167 486.5 686.167ZM495.833 684.833 501.167 684.833 501.167 686.167 495.833 686.167ZM505.167 684.833 510.5 684.833 510.5 686.167 505.167 686.167ZM514.5 684.833 519.833 684.833 519.833 686.167 514.5 686.167ZM518.539 681.5 526.539 685.5 518.539 689.5Z"/><text font-family="Calibri,Calibri_MSFontService,sans-serif" font-style="italic" font-weight="400" font-size="13" transform="translate(484.187 298)">controls</text><text font-family="Calibri,Calibri_MSFontService,sans-serif" font-style="italic" font-weight="400" font-size="13" transform="translate(527.354 298)">$</text><text font-family="Calibri,Calibri_MSFontService,sans-serif" font-style="italic" font-weight="400" font-size="13" transform="translate(484.187 314)">rooms$</text><text font-family="Calibri,Calibri_MSFontService,sans-serif" font-style="italic" font-weight="400" font-size="13" transform="translate(484.187 330)">categories</text><text font-family="Calibri,Calibri_MSFontService,sans-serif" font-style="italic" font-weight="400" font-size="13" transform="translate(540.021 330)">$</text><text font-family="Calibri,Calibri_MSFontService,sans-serif" font-weight="400" font-size="16" transform="translate(539.653 691)">subscriptions</text><text font-family="Calibri,Calibri_MSFontService,sans-serif" font-weight="400" font-size="16" transform="translate(625.333 691)">/</text><text font-family="Calibri,Calibri_MSFontService,sans-serif" font-weight="400" font-size="16" transform="translate(631.226 691)">observers</text><path d="M717.5 684.833 778.872 684.833 778.872 686.167 717.5 686.167ZM777.539 681.5 785.539 685.5 777.539 689.5Z"/><text font-family="Calibri,Calibri_MSFontService,sans-serif" font-weight="400" font-size="16" transform="translate(798.78 691)">methods</text><text font-family="Calibri,Calibri_MSFontService,sans-serif" font-style="italic" font-weight="400" font-size="13" transform="translate(739.837 224)">updateStructureInStore</text><text font-family="Calibri,Calibri_MSFontService,sans-serif" font-style="italic" font-weight="400" font-size="13" transform="translate(739.837 240)">updateElementsInStore</text><text font-family="Calibri,Calibri_MSFontService,sans-serif" font-style="italic" font-weight="400" font-size="13" transform="translate(739.837 256)">flushControlsInStore</text><text font-family="Calibri,Calibri_MSFontService,sans-serif" font-style="italic" font-weight="400" font-size="13" transform="translate(739.837 272)">putSettingsInStor</text><text font-family="Calibri,Calibri_MSFontService,sans-serif" font-style="italic" font-weight="400" font-size="13" transform="translate(833.17 272)">e</text><text font-family="Calibri,Calibri_MSFontService,sans-serif" font-style="italic" font-weight="400" font-size="13" transform="translate(823.182 162)">SendMessage</text><path d="M805.5 188.833 810.833 188.833 810.833 190.167 805.5 190.167ZM814.833 188.833 820.167 188.833 820.167 190.167 814.833 190.167ZM824.167 188.833 829.5 188.833 829.5 190.167 824.167 190.167ZM833.5 188.833 838.833 188.833 838.833 190.167 833.5 190.167ZM842.833 188.833 848.167 188.833 848.167 190.167 842.833 190.167ZM852.167 188.833 857.5 188.833 857.5 190.167 852.167 190.167ZM861.5 188.833 866.833 188.833 866.833 190.167 861.5 190.167ZM870.833 188.833 876.167 188.833 876.167 190.167 870.833 190.167ZM880.167 188.833 885.5 188.833 885.5 190.167 880.167 190.167ZM889.5 188.833 894.833 188.833 894.833 190.167 889.5 190.167ZM898.833 188.833 904.167 188.833 904.167 190.167 898.833 190.167ZM908.167 188.833 913.5 188.833 913.5 190.167 908.167 190.167ZM917.5 188.833 922.151 188.833 922.151 190.167 917.5 190.167ZM920.817 185.5 928.817 189.5 920.817 193.5Z"/><text font-family="Calibri,Calibri_MSFontService,sans-serif" font-weight="400" font-size="19" transform="translate(268.658 115)">Pages</text><text font-family="Calibri,Calibri_MSFontService,sans-serif" font-weight="400" font-size="19" transform="translate(82.6079 115)">Views</text><path d="M20.5001 136.138C20.5001 134.681 21.6811 133.5 23.138 133.5L178.862 133.5C180.319 133.5 181.5 134.681 181.5 136.138L181.5 157.862C181.5 159.319 180.319 160.5 178.862 160.5L23.138 160.5C21.6811 160.5 20.5001 159.319 20.5001 157.862Z" stroke="#000000" stroke-width="1.33333" stroke-miterlimit="8" fill="none" fill-rule="evenodd"/><text font-family="Calibri,Calibri_MSFontService,sans-serif" font-weight="400" font-size="16" transform="translate(50.2322 152)">ControlIRCView</text><path d="M20.5001 167.236C20.5001 165.725 21.7248 164.5 23.2357 164.5L178.764 164.5C180.275 164.5 181.5 165.725 181.5 167.236L181.5 189.764C181.5 191.275 180.275 192.5 178.764 192.5L23.2357 192.5C21.7248 192.5 20.5001 191.275 20.5001 189.764Z" stroke="#000000" stroke-width="1.33333" stroke-miterlimit="8" fill="none" fill-rule="evenodd"/><text font-family="Calibri,Calibri_MSFontService,sans-serif" font-weight="400" font-size="16" transform="translate(36.4856 183)">ControlLightV2View</text><path d="M20.5001 199.138C20.5001 197.681 21.6811 196.5 23.138 196.5L178.862 196.5C180.319 196.5 181.5 197.681 181.5 199.138L181.5 220.862C181.5 222.319 180.319 223.5 178.862 223.5L23.138 223.5C21.6811 223.5 20.5001 222.319 20.5001 220.862Z" stroke="#000000" stroke-width="1.33333" stroke-miterlimit="8" fill="none" fill-rule="evenodd"/><text font-family="Calibri,Calibri_MSFontService,sans-serif" font-weight="400" font-size="16" transform="translate(23.1856 215)">ControlPushbuttonView</text><path d="M20.5001 231.138C20.5001 229.681 21.6811 228.5 23.138 228.5L178.862 228.5C180.319 228.5 181.5 229.681 181.5 231.138L181.5 252.862C181.5 254.319 180.319 255.5 178.862 255.5L23.138 255.5C21.6811 255.5 20.5001 254.319 20.5001 252.862Z" stroke="#000000" stroke-width="1.33333" stroke-miterlimit="8" fill="none" fill-rule="evenodd"/><text font-family="Calibri,Calibri_MSFontService,sans-serif" font-weight="400" font-size="16" transform="translate(42.3289 247)">ControlRadioView</text><path d="M20.5001 263.138C20.5001 261.681 21.6811 260.5 23.138 260.5L178.862 260.5C180.319 260.5 181.5 261.681 181.5 263.138L181.5 284.862C181.5 286.319 180.319 287.5 178.862 287.5L23.138 287.5C21.6811 287.5 20.5001 286.319 20.5001 284.862Z" stroke="#000000" stroke-width="1.33333" stroke-miterlimit="8" fill="none" fill-rule="evenodd"/><text font-family="Calibri,Calibri_MSFontService,sans-serif" font-weight="400" font-size="16" transform="translate(42.4956 279)">ControlSliderView</text><path d="M20.5001 295.138C20.5001 293.681 21.6811 292.5 23.138 292.5L178.862 292.5C180.319 292.5 181.5 293.681 181.5 295.138L181.5 316.862C181.5 318.319 180.319 319.5 178.862 319.5L23.138 319.5C21.6811 319.5 20.5001 318.319 20.5001 316.862Z" stroke="#000000" stroke-width="1.33333" stroke-miterlimit="8" fill="none" fill-rule="evenodd"/><text font-family="Calibri,Calibri_MSFontService,sans-serif" font-weight="400" font-size="16" transform="translate(43.6589 311)">CntrolSwitchView</text><path d="M20.5001 326.138C20.5001 324.681 21.6811 323.5 23.138 323.5L178.862 323.5C180.319 323.5 181.5 324.681 181.5 326.138L181.5 347.862C181.5 349.319 180.319 350.5 178.862 350.5L23.138 350.5C21.6811 350.5 20.5001 349.319 20.5001 347.862Z" stroke="#000000" stroke-width="1.33333" stroke-miterlimit="8" fill="none" fill-rule="evenodd"/><text font-family="Calibri,Calibri_MSFontService,sans-serif" font-weight="400" font-size="16" transform="translate(30.8923 342)">ControlTextStateView</text><path d="M20.5001 370.138C20.5001 368.681 21.681 367.5 23.1379 367.5L179.862 367.5C181.319 367.5 182.5 368.681 182.5 370.138L182.5 391.862C182.5 393.319 181.319 394.5 179.862 394.5L23.1379 394.5C21.681 394.5 20.5001 393.319 20.5001 391.862Z" stroke="#000000" stroke-width="1.33333" stroke-miterlimit="8" fill="none" fill-rule="evenodd"/><text font-family="Calibri,Calibri_MSFontService,sans-serif" font-weight="400" font-size="16" transform="translate(43.6936 386)">CardDimmerView</text><path d="M20.5001 402.138C20.5001 400.681 21.681 399.5 23.1379 399.5L179.862 399.5C181.319 399.5 182.5 400.681 182.5 402.138L182.5 423.862C182.5 425.319 181.319 426.5 179.862 426.5L23.1379 426.5C21.681 426.5 20.5001 425.319 20.5001 423.862Z" stroke="#000000" stroke-width="1.33333" stroke-miterlimit="8" fill="none" fill-rule="evenodd"/><text font-family="Calibri,Calibri_MSFontService,sans-serif" font-weight="400" font-size="16" transform="translate(51.6103 418)">CardRadioView</text><path d="M20.5001 434.138C20.5001 432.681 21.681 431.5 23.1379 431.5L179.862 431.5C181.319 431.5 182.5 432.681 182.5 434.138L182.5 455.862C182.5 457.319 181.319 458.5 179.862 458.5L23.1379 458.5C21.681 458.5 20.5001 457.319 20.5001 455.862Z" stroke="#000000" stroke-width="1.33333" stroke-miterlimit="8" fill="none" fill-rule="evenodd"/><text font-family="Calibri,Calibri_MSFontService,sans-serif" font-weight="400" font-size="16" transform="translate(51.777 450)">CardSliderView</text><path d="M20.5001 466.138C20.5001 464.681 21.681 463.5 23.1379 463.5L179.862 463.5C181.319 463.5 182.5 464.681 182.5 466.138L182.5 487.862C182.5 489.319 181.319 490.5 179.862 490.5L23.1379 490.5C21.681 490.5 20.5001 489.319 20.5001 487.862Z" stroke="#000000" stroke-width="1.33333" stroke-miterlimit="8" fill="none" fill-rule="evenodd"/><text font-family="Calibri,Calibri_MSFontService,sans-serif" font-weight="400" font-size="16" transform="translate(48.6903 482)">CardSwitchView</text><text font-family="Calibri,Calibri_MSFontService,sans-serif" font-weight="400" font-size="24" transform="translate(92.8019 509)">:</text><path d="M929.5 471.701C929.5 469.381 931.381 467.5 933.701 467.5L1067.3 467.5C1069.62 467.5 1071.5 469.381 1071.5 471.701L1071.5 506.299C1071.5 508.619 1069.62 510.5 1067.3 510.5L933.701 510.5C931.381 510.5 929.5 508.619 929.5 506.299Z" stroke="#000000" stroke-width="1.33333" stroke-miterlimit="8" fill="none" fill-rule="evenodd"/><text font-family="Calibri,Calibri_MSFontService,sans-serif" font-weight="400" font-size="16" transform="translate(947.296 494)">TranslateService</text><path d="M363.5 401.833 656.918 401.833 656.918 403.167 363.5 403.167ZM655.585 398.5 663.585 402.5 655.585 406.5Z"/><text font-family="Calibri,Calibri_MSFontService,sans-serif" font-style="italic" font-weight="400" font-size="13" transform="translate(493.154 418)">cleanStorage</text><text font-family="Calibri,Calibri_MSFontService,sans-serif" font-style="italic" font-weight="400" font-size="13" transform="translate(493.154 434)">saveSetting</text><text font-family="Calibri,Calibri_MSFontService,sans-serif" font-style="italic" font-weight="400" font-size="13" transform="translate(555.487 434)">s</text><path d="M213.5 359.138C213.5 357.681 214.681 356.5 216.138 356.5L360.862 356.5C362.319 356.5 363.5 357.681 363.5 359.138L363.5 380.862C363.5 382.319 362.319 383.5 360.862 383.5L216.138 383.5C214.681 383.5 213.5 382.319 213.5 380.862Z" stroke="#000000" stroke-width="1.33333" stroke-miterlimit="8" fill="none" fill-rule="evenodd"/><text font-family="Calibri,Calibri_MSFontService,sans-serif" font-weight="400" font-size="16" transform="translate(253.328 375)">MenuPage</text><path d="M213.5 475.236C213.5 473.725 214.725 472.5 216.236 472.5L360.764 472.5C362.275 472.5 363.5 473.725 363.5 475.236L363.5 497.764C363.5 499.275 362.275 500.5 360.764 500.5L216.236 500.5C214.725 500.5 213.5 499.275 213.5 497.764Z" stroke="#000000" stroke-width="1.33333" stroke-miterlimit="8" fill="none" fill-rule="evenodd"/><text font-family="Calibri,Calibri_MSFontService,sans-serif" font-weight="400" font-size="16" transform="translate(241.798 491)">ControlListVM</text><path d="M213.5 508.138C213.5 506.681 214.681 505.5 216.138 505.5L360.862 505.5C362.319 505.5 363.5 506.681 363.5 508.138L363.5 529.862C363.5 531.319 362.319 532.5 360.862 532.5L216.138 532.5C214.681 532.5 213.5 531.319 213.5 529.862Z" stroke="#000000" stroke-width="1.33333" stroke-miterlimit="8" fill="none" fill-rule="evenodd"/><text font-family="Calibri,Calibri_MSFontService,sans-serif" font-weight="400" font-size="16" transform="translate(236.851 524)">CategoryListVM</text><path d="M213.5 541.138C213.5 539.681 214.681 538.5 216.138 538.5L360.862 538.5C362.319 538.5 363.5 539.681 363.5 541.138L363.5 562.862C363.5 564.319 362.319 565.5 360.862 565.5L216.138 565.5C214.681 565.5 213.5 564.319 213.5 562.862Z" stroke="#000000" stroke-width="1.33333" stroke-miterlimit="8" fill="none" fill-rule="evenodd"/><text font-family="Calibri,Calibri_MSFontService,sans-serif" font-weight="400" font-size="16" transform="translate(246.674 557)">RoomListVM</text><path d="M213.5 574.138C213.5 572.681 214.681 571.5 216.138 571.5L360.862 571.5C362.319 571.5 363.5 572.681 363.5 574.138L363.5 595.862C363.5 597.319 362.319 598.5 360.862 598.5L216.138 598.5C214.681 598.5 213.5 597.319 213.5 595.862Z" stroke="#000000" stroke-width="1.33333" stroke-miterlimit="8" fill="none" fill-rule="evenodd"/><text font-family="Calibri,Calibri_MSFontService,sans-serif" font-weight="400" font-size="16" transform="translate(239.761 590)">ColorPickerVM</text><path d="M213.5 606.236C213.5 604.725 214.725 603.5 216.236 603.5L360.764 603.5C362.275 603.5 363.5 604.725 363.5 606.236L363.5 628.765C363.5 630.275 362.275 631.5 360.764 631.5L216.236 631.5C214.725 631.5 213.5 630.275 213.5 628.765Z" stroke="#000000" stroke-width="1.33333" stroke-miterlimit="8" fill="none" fill-rule="evenodd"/><text font-family="Calibri,Calibri_MSFontService,sans-serif" font-weight="400" font-size="16" transform="translate(250.338 622)">DimmerVM</text><path d="M213.5 639.138C213.5 637.681 214.681 636.5 216.138 636.5L360.862 636.5C362.319 636.5 363.5 637.681 363.5 639.138L363.5 660.862C363.5 662.319 362.319 663.5 360.862 663.5L216.138 663.5C214.681 663.5 213.5 662.319 213.5 660.862Z" stroke="#000000" stroke-width="1.33333" stroke-miterlimit="8" fill="none" fill-rule="evenodd"/><text font-family="Calibri,Calibri_MSFontService,sans-serif" font-weight="400" font-size="16" transform="translate(258.254 655)">RadioVM</text><text font-family="Calibri,Calibri_MSFontService,sans-serif" font-weight="400" font-size="24" transform="translate(284.629 679)">:</text><text font-family="Calibri,Calibri_MSFontService,sans-serif" font-weight="400" font-size="19" transform="translate(221.795 459)">View Models (VM)</text><text font-family="Calibri,Calibri_MSFontService,sans-serif" font-style="italic" font-weight="400" font-size="13" transform="translate(816.873 418)">getItem</text><text font-family="Calibri,Calibri_MSFontService,sans-serif" font-style="italic" font-weight="400" font-size="13" transform="translate(816.873 434)">setIte</text><text font-family="Calibri,Calibri_MSFontService,sans-serif" font-style="italic" font-weight="400" font-size="13" transform="translate(847.039 434)">m</text><path d="M0.666667-1.53009e-06 0.666679 5.33333-0.666654 5.33333-0.666667 1.53009e-06ZM0.666688 9.33333 0.6667 14.6667-0.666633 14.6667-0.666645 9.33333ZM0.666709 18.6667 0.666722 24-0.666612 24-0.666624 18.6667ZM0.666731 28 0.666743 33.3333-0.66659 33.3333-0.666602 28ZM0.666752 37.3333 0.666756 39.0765-0.666577 39.0765-0.666581 37.3333ZM4.00009 37.7432 0.000104987 45.7432-3.99991 37.7432Z" transform="matrix(1 0 0 -1 734.5 381.243)"/><text font-family="Calibri,Calibri_MSFontService,sans-serif" font-style="italic" font-weight="400" font-size="13" transform="translate(738.416 364)">settings</text><text font-family="Calibri,Calibri_MSFontService,sans-serif" font-style="italic" font-weight="400" font-size="13" transform="translate(780.749 364)">$</text><text font-family="Calibri,Calibri_MSFontService,sans-serif" font-style="italic" font-weight="400" font-size="13" transform="translate(816.873 298)">setState</text><path d="M805.5 324.833 810.833 324.833 810.833 326.167 805.5 326.167ZM814.833 324.833 820.167 324.833 820.167 326.167 814.833 326.167ZM824.167 324.833 829.5 324.833 829.5 326.167 824.167 326.167ZM833.5 324.833 838.833 324.833 838.833 326.167 833.5 326.167ZM842.833 324.833 848.167 324.833 848.167 326.167 842.833 326.167ZM852.167 324.833 857.5 324.833 857.5 326.167 852.167 326.167ZM861.5 324.833 866.833 324.833 866.833 326.167 861.5 326.167ZM870.833 324.833 876.167 324.833 876.167 326.167 870.833 326.167ZM880.167 324.833 885.5 324.833 885.5 326.167 880.167 326.167ZM889.5 324.833 894.833 324.833 894.833 326.167 889.5 326.167ZM898.833 324.833 904.167 324.833 904.167 326.167 898.833 326.167ZM908.167 324.833 913.5 324.833 913.5 326.167 908.167 326.167ZM917.5 324.833 922.151 324.833 922.151 326.167 917.5 326.167ZM920.817 321.5 928.817 325.5 920.817 329.5Z"/><text font-family="Calibri,Calibri_MSFontService,sans-serif" font-style="italic" font-weight="400" font-size="13" transform="translate(819.229 320)">select$</text><text font-family="Calibri,Calibri_MSFontService,sans-serif" font-style="italic" font-weight="400" font-size="13" transform="translate(819.229 185)">observe</text><path d="M363.5 370.5 400.052 370.5" stroke="#000000" stroke-width="1.33333" stroke-miterlimit="8" fill="none" fill-rule="evenodd"/><path d="M0 0 0.000104987 33.6285" stroke="#000000" stroke-width="1.33333" stroke-miterlimit="8" fill="none" fill-rule="evenodd" transform="matrix(1 0 0 -1 400.5 404.129)"/><path d="M363.5 208.5 400.052 208.5" stroke="#000000" stroke-width="1.33333" stroke-miterlimit="8" fill="none" fill-rule="evenodd"/></g></svg>